<!-- Generator: Adobe Illustrator 22.1.0, SVG Export Plug-In  -->
<svg version="1.1"
	 xmlns="http://www.w3.org/2000/svg" xmlns:xlink="http://www.w3.org/1999/xlink" xmlns:a="http://ns.adobe.com/AdobeSVGViewerExtensions/3.0/"
	 x="0px" y="0px" width="441.999px" height="311.997px" viewBox="0 0 441.999 311.997"
	 style="overflow:scroll;enable-background:new 0 0 441.999 311.997;" xml:space="preserve">
<style type="text/css">
	.st0{fill:#FFFFFF;}
</style>
<defs>
</defs>
<g id="layer_copy_1_">
	<path class="st0" d="M435.563,311.842c0.133-0.026,0.261-0.063,0.392-0.096c0.123-0.03,0.246-0.058,0.368-0.095
		c0.126-0.038,0.248-0.086,0.372-0.13c0.123-0.044,0.246-0.084,0.367-0.135c0.113-0.047,0.222-0.102,0.333-0.154
		c0.126-0.059,0.254-0.115,0.378-0.182c0.103-0.055,0.199-0.117,0.299-0.177c0.125-0.074,0.251-0.145,0.373-0.227
		c0.104-0.069,0.201-0.147,0.301-0.221c0.109-0.082,0.222-0.158,0.328-0.246c0.144-0.118,0.279-0.246,0.414-0.374
		c0.056-0.052,0.114-0.098,0.169-0.152c0.057-0.057,0.104-0.118,0.158-0.176c0.126-0.133,0.252-0.265,0.368-0.406
		c0.091-0.11,0.171-0.228,0.255-0.342c0.07-0.096,0.145-0.188,0.211-0.286c0.085-0.127,0.159-0.258,0.235-0.389
		c0.057-0.095,0.115-0.187,0.168-0.283c0.068-0.129,0.128-0.262,0.189-0.394c0.049-0.105,0.102-0.209,0.146-0.316
		c0.053-0.127,0.096-0.256,0.141-0.385c0.043-0.118,0.088-0.234,0.125-0.354c0.039-0.129,0.067-0.26,0.1-0.391
		c0.031-0.123,0.065-0.244,0.091-0.369c0.03-0.151,0.048-0.305,0.069-0.457c0.015-0.106,0.035-0.21,0.046-0.317
		c0.026-0.265,0.04-0.531,0.04-0.797V7.997c0-0.09-0.011-0.178-0.014-0.268c-0.005-0.153-0.009-0.307-0.023-0.459
		c-0.011-0.123-0.029-0.244-0.046-0.365c-0.019-0.137-0.037-0.273-0.063-0.409c-0.024-0.128-0.056-0.253-0.086-0.379
		c-0.03-0.127-0.061-0.254-0.098-0.38c-0.037-0.125-0.079-0.246-0.122-0.368c-0.043-0.125-0.087-0.25-0.137-0.373
		c-0.047-0.116-0.1-0.229-0.152-0.343c-0.057-0.124-0.113-0.247-0.177-0.368c-0.059-0.11-0.122-0.216-0.185-0.324
		c-0.068-0.117-0.137-0.234-0.212-0.349c-0.072-0.11-0.15-0.214-0.228-0.32c-0.076-0.104-0.15-0.209-0.232-0.311
		c-0.092-0.114-0.189-0.221-0.287-0.329c-0.064-0.071-0.121-0.146-0.188-0.215c-0.016-0.017-0.034-0.03-0.05-0.047
		c-0.106-0.108-0.22-0.208-0.332-0.31c-0.085-0.077-0.167-0.158-0.254-0.231c-0.103-0.085-0.212-0.162-0.319-0.242
		c-0.104-0.078-0.204-0.161-0.312-0.233c-0.089-0.061-0.185-0.112-0.276-0.169c-0.129-0.08-0.256-0.164-0.389-0.236
		c-0.087-0.047-0.18-0.086-0.27-0.13c-0.142-0.07-0.282-0.145-0.428-0.206c-0.124-0.053-0.255-0.095-0.383-0.141
		c-0.114-0.042-0.227-0.089-0.343-0.125c-0.128-0.041-0.262-0.069-0.393-0.103c-0.121-0.031-0.241-0.068-0.363-0.093
		c-0.109-0.023-0.222-0.036-0.332-0.054c-0.15-0.025-0.3-0.053-0.451-0.069c-0.096-0.01-0.193-0.012-0.289-0.019
		c-0.17-0.012-0.34-0.024-0.511-0.026c-0.02,0-0.038-0.003-0.058-0.003H8C7.979,0,7.96,0.003,7.939,0.003
		C7.773,0.004,7.608,0.017,7.442,0.028c-0.101,0.007-0.203,0.009-0.303,0.02c-0.147,0.016-0.293,0.043-0.44,0.067
		C6.585,0.134,6.47,0.147,6.358,0.17C6.238,0.195,6.12,0.231,6.002,0.262c-0.134,0.034-0.269,0.063-0.4,0.104
		C5.494,0.4,5.39,0.445,5.283,0.483c-0.136,0.049-0.274,0.094-0.407,0.15C4.739,0.691,4.607,0.761,4.473,0.827
		C4.376,0.875,4.275,0.917,4.18,0.969C4.055,1.037,3.936,1.116,3.814,1.191c-0.1,0.062-0.203,0.119-0.3,0.185
		c-0.099,0.067-0.193,0.145-0.29,0.216C3.11,1.678,2.993,1.76,2.883,1.852C2.803,1.919,2.728,1.994,2.65,2.064
		C2.53,2.172,2.409,2.28,2.296,2.396C2.281,2.411,2.265,2.423,2.251,2.438C2.189,2.501,2.137,2.571,2.078,2.636
		C1.974,2.751,1.87,2.865,1.772,2.986C1.694,3.082,1.624,3.182,1.551,3.281C1.469,3.392,1.387,3.502,1.312,3.617
		C1.24,3.727,1.175,3.839,1.109,3.951C1.044,4.063,0.977,4.174,0.917,4.289C0.856,4.406,0.801,4.525,0.746,4.644
		C0.691,4.762,0.637,4.879,0.588,5C0.54,5.119,0.498,5.24,0.456,5.361C0.412,5.487,0.368,5.612,0.33,5.741
		C0.294,5.864,0.265,5.988,0.235,6.112C0.204,6.241,0.172,6.369,0.148,6.499C0.123,6.633,0.105,6.767,0.086,6.901
		C0.069,7.025,0.05,7.147,0.039,7.273C0.025,7.424,0.021,7.575,0.016,7.726C0.011,7.816,0,7.905,0,7.997v295.997
		c0,0.265,0.014,0.53,0.04,0.794c0.011,0.113,0.033,0.224,0.048,0.336c0.021,0.146,0.038,0.292,0.067,0.438
		c0.026,0.131,0.062,0.259,0.095,0.388c0.031,0.124,0.058,0.248,0.095,0.371c0.039,0.127,0.086,0.25,0.131,0.375
		c0.043,0.121,0.083,0.244,0.133,0.364c0.048,0.115,0.104,0.227,0.158,0.34c0.058,0.124,0.113,0.248,0.178,0.369
		c0.058,0.107,0.124,0.21,0.186,0.314c0.071,0.12,0.139,0.24,0.217,0.357c0.076,0.113,0.161,0.22,0.242,0.329
		c0.075,0.1,0.144,0.202,0.224,0.3c0.152,0.186,0.314,0.362,0.481,0.533c0.017,0.017,0.031,0.035,0.047,0.052
		c0.02,0.02,0.042,0.036,0.062,0.056c0.168,0.164,0.341,0.323,0.523,0.473c0.096,0.079,0.197,0.147,0.295,0.222
		c0.111,0.082,0.219,0.168,0.334,0.245c0.115,0.077,0.234,0.144,0.352,0.214c0.106,0.063,0.21,0.13,0.32,0.188
		c0.119,0.063,0.242,0.118,0.364,0.176c0.115,0.054,0.228,0.111,0.346,0.16c0.117,0.049,0.237,0.088,0.356,0.131
		c0.127,0.045,0.252,0.094,0.383,0.134c0.119,0.036,0.24,0.062,0.36,0.093c0.133,0.033,0.264,0.07,0.399,0.097
		c0.139,0.028,0.279,0.044,0.419,0.064c0.118,0.017,0.234,0.039,0.354,0.051c0.264,0.025,0.527,0.039,0.791,0.039h426
		c0.264,0,0.527-0.014,0.79-0.04c0.117-0.012,0.232-0.033,0.349-0.05C435.28,311.887,435.423,311.87,435.563,311.842z M16,26.863
		L147.063,153.62L16,284.684V26.863z M221,202.867L27.779,15.997H414.22L221,202.867z M158.566,164.745l56.872,55.003
		c0.075,0.072,0.155,0.134,0.231,0.202c0.094,0.084,0.187,0.169,0.283,0.248c0.112,0.092,0.227,0.175,0.343,0.259
		c0.101,0.074,0.201,0.15,0.305,0.219c0.12,0.079,0.243,0.149,0.365,0.222c0.104,0.061,0.208,0.125,0.315,0.181
		c0.129,0.068,0.263,0.128,0.395,0.188c0.104,0.047,0.207,0.099,0.313,0.141c0.143,0.059,0.288,0.105,0.433,0.155
		c0.1,0.034,0.198,0.072,0.298,0.102c0.157,0.047,0.317,0.082,0.476,0.119c0.091,0.021,0.182,0.048,0.274,0.065
		c0.18,0.035,0.362,0.058,0.543,0.08c0.073,0.009,0.146,0.023,0.219,0.031c0.255,0.024,0.511,0.037,0.768,0.037l0,0H221
		c0.256,0,0.512-0.013,0.768-0.037c0.075-0.008,0.148-0.022,0.222-0.032c0.18-0.022,0.361-0.044,0.54-0.079
		c0.095-0.019,0.187-0.045,0.28-0.067c0.157-0.036,0.314-0.07,0.469-0.116c0.104-0.031,0.204-0.07,0.306-0.104
		c0.143-0.049,0.286-0.096,0.426-0.152c0.107-0.044,0.212-0.096,0.317-0.144c0.131-0.061,0.263-0.118,0.391-0.186
		c0.108-0.058,0.214-0.122,0.32-0.185c0.12-0.07,0.241-0.14,0.358-0.218c0.107-0.07,0.21-0.147,0.313-0.224
		c0.112-0.082,0.225-0.164,0.334-0.253c0.1-0.081,0.195-0.169,0.293-0.256c0.073-0.066,0.151-0.127,0.224-0.196l56.872-55.003
		l131.253,131.252H27.314L158.566,164.745z M294.937,153.62L426,26.863v257.819L294.937,153.62z"/>
</g>
</svg>