<!-- Generator: Adobe Illustrator 22.1.0, SVG Export Plug-In  -->
<svg version="1.1"
	 xmlns="http://www.w3.org/2000/svg" xmlns:xlink="http://www.w3.org/1999/xlink" xmlns:a="http://ns.adobe.com/AdobeSVGViewerExtensions/3.0/"
	 x="0px" y="0px" width="334px" height="378px" viewBox="0 0 334 378" style="overflow:scroll;enable-background:new 0 0 334 378;"
	 xml:space="preserve">
<style type="text/css">
	.st0{fill:#FFFFFF;}
</style>
<defs>
</defs>
<g id="layer_copy_1_">
	<path class="st0" d="M310.363,269.101c-13.479-26.448-32.057-49.446-55.264-68.493c19.788-21.322,31.9-49.812,31.9-81.07
		C287,53.625,233.168,0,167,0S47,53.625,47,119.538c0,31.254,12.109,59.741,31.893,81.062c-23.206,19.05-41.783,42.05-55.259,68.501
		C7.952,299.881,0,333.828,0,370c0,4.418,3.582,8,8,8s8-3.582,8-8c0-63.595,26.449-119.591,74.619-158.335
		c20.765,17.113,47.389,27.41,76.381,27.41c28.989,0,55.609-10.294,76.374-27.403C291.549,250.413,318,306.406,318,370
		c0,4.418,3.582,8,8,8s8-3.582,8-8C334,333.827,326.047,299.88,310.363,269.101z M63,119.538C63,62.447,109.654,16,167,16
		s104,46.447,104,103.538s-46.654,103.538-104,103.538S63,176.628,63,119.538z"/>
</g>
</svg>