<!-- Generator: Adobe Illustrator 22.1.0, SVG Export Plug-In  -->
<svg version="1.1"
	 xmlns="http://www.w3.org/2000/svg" xmlns:xlink="http://www.w3.org/1999/xlink" xmlns:a="http://ns.adobe.com/AdobeSVGViewerExtensions/3.0/"
	 x="0px" y="0px" width="440.094px" height="266px" viewBox="0 0 440.094 266"
	 style="overflow:scroll;enable-background:new 0 0 440.094 266;" xml:space="preserve">
<style type="text/css">
	.st0{fill:#FFFFFF;}
</style>
<defs>
</defs>
<g id="layer_copy_1_">
	<g>
		<g>
			<path class="st0" d="M220.175,266c-40.34,0-79.631-10.86-116.784-32.281C65.254,211.732,31.072,179.522,1.787,137.98
				c-2.2-2.709-2.437-6.65-0.329-9.646C30.79,86.641,65.055,54.324,103.299,32.28C140.459,10.862,179.767,0,220.119,0
				c0.032,0,0.057,0,0.089,0c40.357,0.016,79.648,10.893,116.782,32.329c38.188,22.044,72.389,54.347,101.651,96.01
				c0.945,1.347,1.453,2.953,1.453,4.598v0.126c0,1.646-0.508,3.251-1.453,4.598c-29.264,41.664-63.458,73.967-101.633,96.01
				c-37.123,21.435-76.402,32.312-116.745,32.329C220.234,266,220.204,266,220.175,266z M17.842,132.925
				C72.593,208.474,144.266,250,220.175,250c0.029,0,0.055,0,0.083,0c75.853-0.03,147.426-41.529,202.057-117
				C367.684,57.529,296.091,16.03,220.203,16c-0.023,0-0.059,0-0.082,0C144.22,16,72.583,57.461,17.842,132.925z"/>
		</g>
		<g>
			<g>
				<path class="st0" d="M219.908,226.5c-51.556,0-93.5-41.944-93.5-93.5s41.944-93.5,93.5-93.5s93.5,41.944,93.5,93.5
					S271.463,226.5,219.908,226.5z M219.908,55.5c-42.733,0-77.5,34.767-77.5,77.5s34.767,77.5,77.5,77.5s77.5-34.767,77.5-77.5
					S262.641,55.5,219.908,55.5z"/>
			</g>
			<g>
				<path class="st0" d="M263.408,139.5c-4.418,0-8-3.582-8-8c0-19.299-15.701-35-35-35c-4.418,0-8-3.582-8-8s3.582-8,8-8
					c28.121,0,51,22.878,51,51C271.408,135.918,267.825,139.5,263.408,139.5z"/>
			</g>
		</g>
	</g>
</g>
</svg>