<!-- Generator: Adobe Illustrator 22.1.0, SVG Export Plug-In  -->
<svg version="1.1"
	 xmlns="http://www.w3.org/2000/svg" xmlns:xlink="http://www.w3.org/1999/xlink" xmlns:a="http://ns.adobe.com/AdobeSVGViewerExtensions/3.0/"
	 x="0px" y="0px" width="239.023px" height="207px" viewBox="0 0 239.023 207"
	 style="overflow:scroll;enable-background:new 0 0 239.023 207;" xml:space="preserve">
<style type="text/css">
	.st0{fill:#FFFFFF;}
	.st1{fill:none;}
</style>
<defs>
</defs>
<g>
	<path class="st0" d="M177.535,3l58.024,100.5L177.535,204H61.488L3.464,103.5L61.488,3H177.535 M179.267,0H59.756L0,103.5
		L59.756,207h119.512l59.756-103.5L179.267,0L179.267,0z"/>
</g>
<g>
	<rect x="50.874" y="63.485" class="st1" width="137.274" height="80.03"/>
	<path class="st0" d="M53.566,68.696h5.844c4.004,0,6.773,1.361,6.773,4.822c0,1.945-1.036,3.675-2.877,4.275v0.12
		c2.353,0.464,4.004,2.018,4.004,4.711c0,3.868-3.063,5.76-7.452,5.76h-6.292V68.696z M58.986,77.074
		c3.348,0,4.735-1.235,4.735-3.231c0-2.3-1.576-3.159-4.621-3.159h-3.029v6.39H58.986z M59.498,86.397
		c3.367,0,5.351-1.213,5.351-3.866c0-2.426-1.908-3.534-5.351-3.534h-3.427v7.4H59.498z"/>
	<path class="st0" d="M74.774,68.696h2.827l6.66,19.689h-2.654l-3.433-10.997c-0.708-2.201-1.339-4.362-1.971-6.635h-0.12
		c-0.61,2.284-1.241,4.434-1.949,6.635l-3.471,10.997h-2.55L74.774,68.696z M71.615,80.388h9.066v1.999h-9.066V80.388z"/>
	<path class="st0" d="M85.124,85.822l1.499-1.72c1.418,1.47,3.385,2.439,5.432,2.439c2.583,0,4.116-1.287,4.116-3.2
		c0-2.011-1.426-2.652-3.285-3.464l-2.828-1.248c-1.834-0.783-3.986-2.174-3.986-5.069c0-3.007,2.621-5.226,6.198-5.226
		c2.334,0,4.415,1.011,5.797,2.439l-1.329,1.609c-1.206-1.139-2.649-1.846-4.469-1.846c-2.208,0-3.67,1.114-3.67,2.875
		c0,1.897,1.717,2.606,3.259,3.258l2.806,1.214c2.278,0.979,4.057,2.336,4.057,5.264c0,3.11-2.57,5.595-6.71,5.595
		C89.248,88.745,86.845,87.617,85.124,85.822z"/>
	<path class="st0" d="M102.082,68.696h2.505v19.689h-2.505V68.696z"/>
	<path class="st0" d="M108.345,78.558c0-6.35,3.742-10.222,8.737-10.222c2.39,0,4.263,1.162,5.415,2.428l-1.373,1.631
		c-1.036-1.105-2.337-1.857-3.999-1.857c-3.721,0-6.193,3.048-6.193,7.953c0,4.949,2.362,8.051,6.096,8.051
		c1.879,0,3.307-0.818,4.563-2.21l1.373,1.571c-1.555,1.806-3.482,2.842-6.041,2.842C112.021,88.745,108.345,84.952,108.345,78.558z
		"/>
	<path class="st0" d="M129.642,68.696h2.587l2.066,10.719c0.381,2.116,0.772,4.231,1.153,6.347h0.12
		c0.436-2.116,0.91-4.243,1.383-6.347l2.732-10.719h2.272l2.732,10.719c0.474,2.083,0.947,4.22,1.421,6.347h0.12
		c0.381-2.127,0.734-4.253,1.115-6.347l2.066-10.719h2.417l-4.074,19.689h-3.013l-2.979-11.835
		c-0.338-1.538-0.654-2.968-0.948-4.484h-0.12c-0.305,1.516-0.648,2.946-0.986,4.484l-2.918,11.835h-2.969L129.642,68.696z"/>
	<path class="st0" d="M154.756,68.696h11.348v2.121h-8.843v6.169h7.459v2.121h-7.459v7.158h9.143v2.121h-11.648V68.696z"/>
	<path class="st0" d="M170.084,68.696h5.844c4.004,0,6.773,1.361,6.773,4.822c0,1.945-1.036,3.675-2.877,4.275v0.12
		c2.353,0.464,4.004,2.018,4.004,4.711c0,3.868-3.063,5.76-7.452,5.76h-6.292V68.696z M175.504,77.074
		c3.348,0,4.735-1.235,4.735-3.231c0-2.3-1.576-3.159-4.621-3.159h-3.029v6.39H175.504z M176.016,86.397
		c3.367,0,5.351-1.213,5.351-3.866c0-2.426-1.908-3.534-5.351-3.534h-3.427v7.4H176.016z"/>
	<path class="st0" d="M54.462,110.136h6.566c8.07,0,12.397,4.69,12.397,13.03c0,8.339-4.327,13.219-12.25,13.219h-6.713V110.136z
		 M60.78,133.646c6.135,0,9.196-3.845,9.196-10.48c0-6.635-3.061-10.291-9.196-10.291h-2.979v20.771H60.78z"/>
	<path class="st0" d="M79.68,110.136h15.129v2.827H83.02v8.225h9.945v2.827H83.02v9.542h12.189v2.827H79.68V110.136z"/>
	<path class="st0" d="M99.454,132.968l1.999-2.292c1.89,1.96,4.513,3.252,7.242,3.252c3.444,0,5.487-1.716,5.487-4.266
		c0-2.681-1.901-3.536-4.378-4.618l-3.771-1.663c-2.446-1.044-5.315-2.898-5.315-6.758c0-4.01,3.494-6.967,8.263-6.967
		c3.111,0,5.885,1.348,7.729,3.252l-1.771,2.146c-1.608-1.518-3.532-2.461-5.957-2.461c-2.944,0-4.894,1.485-4.894,3.833
		c0,2.529,2.289,3.474,4.345,4.344l3.741,1.619c3.037,1.305,5.408,3.115,5.408,7.018c0,4.146-3.427,7.459-8.945,7.459
		C104.951,136.865,101.748,135.361,99.454,132.968z"/>
	<path class="st0" d="M123.303,110.136h3.34v26.249h-3.34V110.136z"/>
	<path class="st0" d="M132.895,123.284c0-8.466,5.089-13.627,12.048-13.627c3.637,0,6.032,1.65,7.569,3.237l-1.83,2.175
		c-1.331-1.373-3.015-2.476-5.65-2.476c-5.289,0-8.687,4.063-8.687,10.603c0,6.598,3.12,10.733,8.72,10.733
		c1.883,0,3.693-0.564,4.729-1.542v-6.834h-5.558v-2.769h8.604v11.033c-1.688,1.76-4.563,3.048-8.091,3.048
		C137.824,136.865,132.895,131.808,132.895,123.284z"/>
	<path class="st0" d="M159.696,110.136h3.45l9.5,16.502l2.833,5.435h0.16c-0.168-2.648-0.425-5.607-0.425-8.352v-13.585h3.172
		v26.249h-3.45l-9.5-16.516l-2.833-5.42h-0.16c0.168,2.656,0.425,5.455,0.425,8.199v13.737h-3.172V110.136z"/>
</g>
</svg>